# File created by Blade
# Date/Time:  Wed Jan 21 14:37:15 2015
# Frame Rate: 120.000 fps
#------------------------------------------------------
:FULLY-SPECIFIED
:DEGREES
379
root 18.649423 35.598399 -20.850877 -176.637639 -6.394115 -179.314086
Spine -15.545285 3.277228 1.659896
Head 7.402505 -7.733227 -2.384359
LeftShoulder 8.996180 -36.412907 -2.805294
LeftArm 42.919095 37.273324 -32.943627
LeftForeArm 15.232809 -0.000000 33.981046
LeftHand 1.357289 -0.000000 -1.587284
LeftHandThumb1 -26.253704 0.000000 33.147579
RightShoulder 6.644546 -2.045334 -10.115377
RightArm 58.877711 -22.900028 43.601598
RightForeArm 1.446558 -0.000000 78.354671
RightHand -5.053834 -0.000000 4.444276
RightHandThumb1 -24.326973 -0.000000 -32.862282
LeftUpLeg 1.730918 10.618481 1.391052
LeftLeg -5.914416 -0.000000 0.000000
LeftFoot -17.616142 27.384223 -10.909400
LeftToeBase 26.905168 -0.000000 -0.000000
RightUpLeg 2.205000 -12.148204 0.577889
RightLeg -3.087932 -0.000000 0.000000
RightFoot -19.918942 -27.774649 13.502274
RightToeBase 23.825558 -0.000000 -0.000000
380
root 18.645125 35.595352 -20.856196 -176.635613 -6.190494 -179.294851
Spine -15.517227 3.212178 1.786753
Head 7.369654 -7.474007 -2.679348
LeftShoulder 9.016716 -36.639436 -2.387063
LeftArm 44.124857 37.313418 -32.186588
LeftForeArm 15.593909 -0.000000 32.985648
LeftHand 1.417090 -0.000000 -1.277342
LeftHandThumb1 -26.253704 0.000000 33.147579
RightShoulder 6.618609 -2.502066 -9.595421
RightArm 58.196126 -23.622052 43.432467
RightForeArm 3.581353 -0.000000 78.581048
RightHand -5.085156 -0.000000 4.321453
RightHandThumb1 -24.326973 -0.000000 -32.862282
LeftUpLeg 1.769607 10.697994 1.403072
LeftLeg -5.914354 -0.000000 0.000000
LeftFoot -17.677458 27.491907 -10.869349
LeftToeBase 26.983809 -0.000000 -0.000000
RightUpLeg 2.195435 -12.056819 0.581725
RightLeg -3.103177 -0.000000 0.000000
RightFoot -19.880457 -27.711205 13.428238
RightToeBase 23.826431 -0.000000 -0.000000
381
root 18.639257 35.593197 -20.861080 -176.630466 -5.973457 -179.277065
Spine -15.487547 3.176790 1.917602
Head 7.338511 -7.232830 -2.985984
LeftShoulder 9.024644 -36.880788 -2.040354
LeftArm 45.532900 37.447794 -31.248124
LeftForeArm 15.898164 -0.000000 32.035463
LeftHand 1.336228 -0.000000 -0.872158
LeftHandThumb1 -26.253704 0.000000 33.147579
RightShoulder 6.571222 -3.029728 -9.040114
RightArm 57.822031 -24.287390 43.046684
RightForeArm 6.096690 -0.000000 78.778056
RightHand -5.425856 0.000000 3.780726
RightHandThumb1 -24.326973 -0.000000 -32.862282
LeftUpLeg 1.805216 10.792198 1.409858
LeftLeg -5.910524 -0.000000 0.000000
LeftFoot -17.743055 27.584869 -10.850416
LeftToeBase 26.977798 -0.000000 -0.000000
RightUpLeg 2.176603 -11.943530 0.580516
RightLeg -3.110918 -0.000000 0.000000
RightFoot -19.839055 -27.631881 13.375277
RightToeBase 23.850741 -0.000000 -0.000000
382
root 18.631633 35.591081 -20.864705 -176.625530 -5.754915 -179.260476
Spine -15.452331 3.160820 2.050067
Head 7.286040 -6.970707 -3.258326
LeftShoulder 9.101175 -37.161810 -1.685252
LeftArm 46.795842 37.515129 -30.554058
LeftForeArm 16.384799 -0.000000 31.138406
LeftHand 1.188363 -0.000000 -0.513966
LeftHandThumb1 -26.253704 0.000000 33.147579
RightShoulder 6.601344 -3.366147 -8.602610
RightArm 57.293104 -25.082729 42.796261
RightForeArm 8.370009 -0.000000 79.008126
RightHand -5.583555 -0.000000 2.911003
RightHandThumb1 -24.326973 -0.000000 -32.862282
LeftUpLeg 1.837949 10.894053 1.410537
LeftLeg -5.906022 -0.000000 0.000000
LeftFoot -17.795869 27.683680 -10.829856
LeftToeBase 26.978938 -0.000000 -0.000000
RightUpLeg 2.149422 -11.834501 0.577109
RightLeg -3.106961 -0.000000 0.000000
RightFoot -19.818605 -27.555312 13.338252
RightToeBase 23.911046 -0.000000 -0.000000
383
root 18.625107 35.590078 -20.868980 -176.617056 -5.533454 -179.241094
Spine -15.428326 3.154916 2.179413
Head 7.265733 -6.763995 -3.567596
LeftShoulder 9.223102 -37.502541 -1.391063
LeftArm 48.035507 37.598549 -29.884344
LeftForeArm 16.737882 0.000000 30.283030
LeftHand 1.250511 0.000000 -0.342882
LeftHandThumb1 -26.253704 0.000000 33.147579
RightShoulder 6.590351 -3.841018 -8.158367
RightArm 57.142783 -25.712303 42.454678
RightForeArm 10.437334 -0.000000 79.155720
RightHand -6.061059 -0.000000 2.529147
RightHandThumb1 -24.326973 -0.000000 -32.862282
LeftUpLeg 1.856106 11.001954 1.415088
LeftLeg -5.878270 -0.000000 0.000000
LeftFoot -17.876749 27.767701 -10.856773
LeftToeBase 27.038408 -0.000000 -0.000000
RightUpLeg 2.112891 -11.735839 0.577209
RightLeg -3.094273 -0.000000 0.000000
RightFoot -19.770605 -27.462949 13.293811
RightToeBase 24.120505 -0.000000 -0.000000
384
root 18.619618 35.590640 -20.874631 -176.594380 -5.308937 -179.236741
Spine -15.440846 2.903878 2.356139
Head 7.285285 -6.299985 -3.877715
LeftShoulder 9.018104 -37.827862 -0.900340
LeftArm 49.239117 37.638895 -29.340095
LeftForeArm 17.152126 -0.000000 29.505256
LeftHand 1.274243 -0.000000 -0.320997
LeftHandThumb1 -26.253704 0.000000 33.147579
RightShoulder 6.949576 -4.153650 -7.753595
RightArm 56.889782 -26.383054 42.257024
RightForeArm 12.758597 -0.000000 79.203128
RightHand -6.169251 -0.000000 2.170248
RightHandThumb1 -24.326973 -0.000000 -32.862282
LeftUpLeg 1.870930 11.081851 1.406162
LeftLeg -5.859677 -0.000000 0.000000
LeftFoot -17.932867 27.876550 -10.895314
LeftToeBase 26.907837 -0.000000 -0.000000
RightUpLeg 2.066766 -11.640354 0.568777
RightLeg -3.080927 -0.000000 0.000000
RightFoot -19.738701 -27.363876 13.276493
RightToeBase 23.936953 -0.000000 -0.000000
385
root 18.615866 35.591884 -20.878778 -176.645445 -5.060489 -179.260679
Spine -15.365635 2.086178 2.689275
Head 7.312011 -5.188819 -4.245658
LeftShoulder 8.203322 -38.239197 -0.100988
LeftArm 50.309643 37.685171 -28.817255
LeftForeArm 17.696815 0.000000 28.748760
LeftHand 1.307116 -0.000000 -0.304199
LeftHandThumb1 -26.253704 0.000000 33.147579
RightShoulder 8.079822 -4.330670 -7.447243
RightArm 56.522423 -26.938688 42.315520
RightForeArm 15.029810 0.000000 79.223642
RightHand -6.156504 0.000000 2.260268
RightHandThumb1 -24.326973 -0.000000 -32.862282
LeftUpLeg 1.954445 11.205771 1.384344
LeftLeg -5.826360 -0.000000 0.000000
LeftFoot -17.995503 27.954804 -10.995733
LeftToeBase 26.878640 -0.000000 -0.000000
RightUpLeg 2.089322 -11.517858 0.516390
RightLeg -3.064512 -0.000000 0.000000
RightFoot -19.711859 -27.259287 13.231755
RightToeBase 24.187869 -0.000000 -0.000000
386
root 18.610443 35.590702 -20.883226 -176.682955 -4.820074 -179.255824
Spine -15.298280 1.803275 2.883027
Head 7.336730 -4.665170 -4.545475
LeftShoulder 7.990267 -38.574644 0.334029
LeftArm 51.559431 37.671669 -28.299512
LeftForeArm 18.300970 -0.000000 28.057543
LeftHand 1.163026 -0.000000 -0.478548
LeftHandThumb1 -26.253704 0.000000 33.147579
RightShoulder 8.620706 -4.536244 -7.126339
RightArm 56.409351 -27.628758 42.175574
RightForeArm 16.428126 -0.000000 79.409066
RightHand -6.838305 -0.000000 1.763160
RightHandThumb1 -24.326973 -0.000000 -32.862282
LeftUpLeg 2.017406 11.325163 1.385670
LeftLeg -5.786114 -0.000000 0.000000
LeftFoot -18.083220 28.040387 -11.029413
LeftToeBase 26.892680 -0.000000 -0.000000
RightUpLeg 2.091359 -11.434178 0.493392
RightLeg -3.033862 -0.000000 0.000000
RightFoot -19.679642 -27.136263 13.155348
RightToeBase 23.989617 -0.000000 -0.000000
387
root 18.604103 35.589769 -20.888529 -176.712221 -4.593887 -179.243991
Spine -15.245435 1.624146 3.045349
Head 7.351775 -4.236337 -4.785614
LeftShoulder 7.962832 -39.047127 0.701972
LeftArm 52.677527 37.744875 -28.039639
LeftForeArm 18.891284 0.000000 27.297260
LeftHand 1.276158 -0.000000 -0.731895
LeftHandThumb1 -26.253704 0.000000 33.147579
RightShoulder 9.078433 -4.803859 -6.868170
RightArm 56.324418 -28.166479 42.084710
RightForeArm 18.035159 -0.000000 79.571853
RightHand -7.079363 -0.000000 1.349737
RightHandThumb1 -24.326973 -0.000000 -32.862282
LeftUpLeg 2.066664 11.425293 1.390035
LeftLeg -5.737527 -0.000000 0.000000
LeftFoot -18.167107 28.154885 -11.042126
LeftToeBase 26.895353 -0.000000 -0.000000
RightUpLeg 2.085665 -11.346641 0.480926
RightLeg -3.005246 -0.000000 0.000000
RightFoot -19.648335 -27.038126 13.114398
RightToeBase 24.185823 -0.000000 -0.000000
